<svg width="294" height="300" viewBox="0 0 294 300" fill="none" xmlns="http://www.w3.org/2000/svg">
<path d="M146.634 300C227.618 300 293.269 293.996 293.269 286.59C293.269 279.184 227.618 273.18 146.634 273.18C65.6505 273.18 0 279.184 0 286.59C0 293.996 65.6505 300 146.634 300Z" fill="#D8D8D8"/>
<path d="M150.433 148.655C150.053 149.605 142.076 171.258 172.466 198.837C175.354 201.459 175.999 205.637 174.328 208.942C174.024 209.55 173.644 210.12 173.15 210.652C170.035 214.223 164.451 214.375 160.918 211.184C129.464 182.54 131.135 157.05 133.415 146.756C134.592 141.513 139.835 138.246 145.001 139.69C145.153 139.728 145.305 139.766 145.495 139.842C145.533 139.842 151.611 142.311 150.433 148.655Z" fill="white"/>
<path d="M166.882 214.185C164.527 214.185 162.21 213.311 160.462 211.715C146.748 199.217 137.783 185.921 133.87 172.284C130.679 161.229 131.515 152.226 132.769 146.604C133.377 143.868 135.086 141.475 137.479 140.07C139.835 138.626 142.608 138.284 145.305 139.006C145.457 139.044 145.647 139.12 145.799 139.158C147.242 139.652 152.333 142.767 151.193 148.769L151.155 148.883C150.927 149.491 148.99 154.999 150.699 163.584C152.941 175.057 160.652 187.061 173.036 198.268C176.113 201.041 176.949 205.561 175.05 209.284C174.708 209.968 174.29 210.576 173.796 211.146C172.201 212.969 169.959 214.033 167.49 214.185C167.224 214.185 167.072 214.185 166.882 214.185ZM142.57 140.07C141.05 140.07 139.531 140.488 138.201 141.285C136.15 142.539 134.706 144.514 134.174 146.908C132.959 152.34 132.161 161.115 135.276 171.866C139.113 185.276 147.926 198.306 161.45 210.614C163.045 212.057 165.173 212.817 167.338 212.703C169.427 212.589 171.289 211.677 172.618 210.158C173.036 209.664 173.416 209.132 173.682 208.6C175.278 205.485 174.594 201.687 172.011 199.369C159.247 187.783 151.573 175.855 149.218 163.888C147.508 155.227 149.294 149.643 149.75 148.427C150.699 142.995 145.761 140.715 145.305 140.526C145.153 140.488 145.001 140.45 144.887 140.412C144.089 140.184 143.329 140.07 142.57 140.07Z" fill="#010101"/>
<path d="M132.845 163.964C132.845 163.964 137.441 157.468 148.99 158.988L132.845 163.964Z" fill="white"/>
<path d="M133.453 164.382L132.275 163.547C132.465 163.281 137.251 156.671 149.142 158.266L148.952 159.71C137.935 158.266 133.604 164.116 133.453 164.382Z" fill="#010101"/>
<path d="M138.619 181.933C138.619 181.933 144.925 173.689 153.282 174.297L138.619 181.933Z" fill="white"/>
<path d="M139.189 182.389L138.011 181.515C138.087 181.439 139.683 179.35 142.342 177.336C145.913 174.639 149.712 173.347 153.282 173.613L153.169 175.057C145.381 174.487 139.265 182.313 139.189 182.389Z" fill="#010101"/>
<path d="M149.18 198.837C149.18 198.837 153.739 190.062 162.286 188.922L149.18 198.837Z" fill="white"/>
<path d="M149.826 199.179L148.534 198.496C148.724 198.116 153.358 189.34 162.21 188.201L162.4 189.644C154.346 190.708 149.864 199.065 149.826 199.179Z" fill="#010101"/>
<path d="M180.027 219.351C180.027 219.351 174.328 224.897 166.731 219.579C166.731 219.579 161.944 215.97 163.084 210.614L166.655 202.902C166.655 202.902 168.098 194.051 178.735 196.938C178.735 196.938 186.219 199.293 185.649 206.853L183.559 209.816" fill="white"/>
<path d="M173.378 222.58C171.327 222.58 168.934 221.972 166.312 220.149C166.085 219.959 161.146 216.198 162.362 210.424V210.348L165.933 202.674C166.047 202.028 166.806 198.875 169.731 196.976C172.087 195.456 175.164 195.229 178.887 196.216C179 196.254 186.94 198.837 186.332 206.891V207.081L184.129 210.196L182.951 209.36L184.927 206.587C185.307 199.863 178.773 197.698 178.507 197.622C175.24 196.748 172.543 196.938 170.567 198.192C167.908 199.863 167.376 202.978 167.376 203.016V203.13L167.338 203.206L163.805 210.842C162.856 215.628 167.148 218.971 167.186 219.009C174.176 223.91 179.456 218.895 179.532 218.857L180.558 219.921C180.52 219.921 177.671 222.58 173.378 222.58Z" fill="#010101"/>
<path d="M183.408 209.778L185.915 206.929C186.447 203.13 183.749 198.837 179.229 197.204C174.176 195.342 169.048 196.596 167.529 200.737C167.339 201.269 166.959 202.408 166.883 202.978L163.92 209.246C163.73 209.588 163.578 209.892 163.464 210.234C162.78 212.057 162.932 214.071 163.844 215.97C163.958 216.198 164.072 216.426 164.224 216.654C165.439 218.667 167.415 220.263 169.846 221.174C173.759 222.618 178.013 221.858 180.406 219.275L184.395 210.158" fill="white"/>
<path d="M173.872 222.618C172.467 222.618 171.023 222.352 169.618 221.858C167.034 220.909 164.945 219.199 163.615 217.034C163.464 216.768 163.312 216.54 163.198 216.274C162.21 214.223 162.058 211.981 162.78 209.968C162.932 209.588 163.084 209.246 163.274 208.866L166.161 202.712C166.275 201.877 166.806 200.471 166.806 200.433C167.604 198.23 169.39 196.634 171.821 195.95C174.1 195.305 176.797 195.495 179.457 196.444C184.129 198.154 187.206 202.712 186.598 206.967L186.56 207.195L184.091 210.006L185.041 210.424L180.976 219.655L180.9 219.731C179.229 221.63 176.645 222.618 173.872 222.618ZM174.746 197.052C173.872 197.052 173.037 197.166 172.277 197.394C170.871 197.774 169.048 198.723 168.25 200.965C168.06 201.535 167.718 202.598 167.642 203.016V203.13L164.603 209.55C164.451 209.854 164.299 210.12 164.185 210.424C163.577 212.057 163.691 213.843 164.527 215.59C164.641 215.818 164.755 216.008 164.869 216.236C166.009 218.097 167.87 219.579 170.111 220.415C173.72 221.744 177.595 221.099 179.798 218.819L183.673 210.006L182.837 209.284L185.193 206.587C185.573 203.054 182.951 199.331 178.963 197.85C177.557 197.318 176.114 197.052 174.746 197.052Z" fill="#010101"/>
<path d="M184.243 210.386C181.964 213.045 177.785 213.805 173.682 212.285C171.289 211.412 169.276 209.778 168.06 207.765C167.908 207.537 167.794 207.309 167.68 207.081C166.768 205.182 166.616 203.168 167.3 201.345L184.243 210.386ZM186.218 206.587L178.013 203.7L186.218 206.587Z" fill="white"/>
<path d="M177.899 213.767C176.456 213.767 174.936 213.501 173.417 212.931C170.833 211.981 168.744 210.272 167.415 208.107C167.263 207.841 167.111 207.613 166.997 207.347C166.009 205.295 165.857 203.054 166.579 201.041L167.946 201.535C167.339 203.168 167.453 204.954 168.288 206.701C168.402 206.929 168.516 207.119 168.63 207.347C169.77 209.208 171.631 210.69 173.873 211.526C177.709 212.931 181.546 212.285 183.635 209.854L184.737 210.804C183.18 212.779 180.672 213.767 177.899 213.767ZM185.991 207.271L177.785 204.384L178.279 203.016L186.485 205.903L185.991 207.271Z" fill="#010101"/>
<path d="M184.661 211.07L176.228 206.017L184.661 211.07Z" fill="white"/>
<path d="M176.609 205.39L175.847 206.66L184.286 211.719L185.048 210.449L176.609 205.39Z" fill="#010101"/>
<path d="M180.938 205.523C181.204 204.232 179.646 202.522 177.785 201.686C175.468 200.661 173.036 201.041 172.353 202.522C171.707 204.004 173.036 206.055 175.392 207.081C176.683 207.651 178.051 207.803 179.077 207.537L180.368 208.448" fill="white"/>
<path d="M179.95 209.094L178.925 208.372C177.747 208.562 176.38 208.372 175.126 207.802C173.872 207.233 172.809 206.397 172.163 205.409C171.441 204.346 171.289 203.206 171.707 202.256C172.125 201.307 173.075 200.661 174.328 200.471C175.506 200.281 176.835 200.509 178.089 201.041C180.14 201.952 182.002 203.928 181.66 205.675L180.216 205.371C180.368 204.573 179.267 203.13 177.481 202.37C176.494 201.914 175.43 201.762 174.556 201.914C174.1 201.99 173.303 202.18 173.037 202.864C172.733 203.51 173.113 204.27 173.378 204.611C173.872 205.371 174.708 206.017 175.696 206.473C176.797 206.967 177.975 207.119 178.925 206.891L179.267 206.815L180.824 207.916L179.95 209.094Z" fill="#010101"/>
<path d="M171.479 229.57C171.479 229.57 170.263 226.037 171.859 223.568L171.973 223.302L187.092 200.433C188.498 198.306 191.689 197.66 192.448 197.508C196.285 197.166 199.932 195.115 202.211 191.658C204.567 188.125 204.947 183.87 203.693 180.147C203.579 179.843 203.199 179.426 202.971 179.843L197.767 187.745C197.045 188.847 195.45 189.075 194.196 188.277L186.636 183.262C185.421 182.465 185.003 180.907 185.725 179.767L190.967 171.828C191.233 171.486 190.625 171.258 190.283 171.258C186.37 171.562 182.61 173.575 180.254 177.108C178.013 180.527 177.557 184.592 178.659 188.201C178.659 188.201 179.722 192 178.127 194.431L163.35 216.92L163.008 217.3C161.602 219.427 158.411 220.073 157.651 220.225C153.814 220.567 150.168 222.618 147.888 226.075C143.9 232.115 145.533 240.283 151.611 244.271C157.651 248.26 165.819 246.627 169.808 240.549C172.125 237.244 172.581 233.179 171.479 229.57ZM181.166 196.406C181.204 196.368 181.242 196.292 181.28 196.216C181.85 195.343 182.989 195.115 183.863 195.684C184.737 196.254 184.965 197.394 184.395 198.268C184.319 198.382 184.243 198.458 184.167 198.534L168.706 221.934C168.668 222.048 168.554 222.238 168.478 222.314C167.908 223.188 166.768 223.416 165.895 222.846C165.059 222.314 164.831 221.175 165.325 220.339L165.401 220.263L181.166 196.406ZM158.525 240.397L152.599 236.484L153.017 229.38L159.361 226.227L165.287 230.14L164.869 237.244L158.525 240.397Z" fill="#D8D8D8"/>
<path d="M158.867 247.272C156.17 247.272 153.549 246.475 151.231 244.955C148.154 242.904 146.027 239.789 145.305 236.142C144.583 232.495 145.305 228.81 147.319 225.733C149.636 222.2 153.397 219.959 157.613 219.579C158.259 219.465 161.222 218.857 162.476 216.996L162.552 216.92L162.856 216.578L177.595 194.127C179.001 192 178.051 188.505 178.051 188.467L177.709 187.213H177.747C176.987 183.604 177.709 179.843 179.76 176.766C182.154 173.157 185.991 170.916 190.321 170.574C190.739 170.536 191.423 170.688 191.727 171.22C191.917 171.562 191.879 171.942 191.651 172.246L186.408 180.223C186.18 180.565 186.105 181.021 186.218 181.477C186.332 181.971 186.674 182.389 187.092 182.693L194.652 187.707C195.108 188.011 195.602 188.125 196.095 188.049C196.551 187.973 196.931 187.745 197.197 187.403L202.401 179.54C202.629 179.198 202.971 178.97 203.351 179.008C203.883 179.046 204.301 179.54 204.453 179.957C205.858 184.06 205.289 188.505 202.895 192.114C200.578 195.647 196.817 197.888 192.6 198.268C191.955 198.382 188.992 198.989 187.738 200.851L187.358 201.459L172.657 223.682L172.505 223.986C171.099 226.075 172.201 229.304 172.201 229.342L172.657 230.634L172.505 230.596C173.265 234.205 172.543 237.965 170.491 241.042C168.44 244.119 165.325 246.247 161.678 246.969C160.728 247.196 159.817 247.272 158.867 247.272ZM163.653 217.832C162.096 220.149 158.791 220.871 157.841 221.023H157.803C154.042 221.365 150.662 223.378 148.572 226.531C146.749 229.304 146.103 232.609 146.749 235.838C147.395 239.105 149.294 241.878 152.067 243.702C154.84 245.525 158.145 246.171 161.374 245.525C164.641 244.879 167.414 242.98 169.238 240.207C171.289 237.092 171.859 233.293 170.757 229.722L170.377 228.468L170.453 228.506C170.187 227.139 170.073 224.935 171.213 223.188L171.365 222.884L186.902 199.407L186.94 199.445C188.612 197.546 191.461 196.938 192.373 196.786H192.411C196.171 196.444 199.552 194.431 201.642 191.278C203.693 188.201 204.225 184.44 203.199 180.907L198.413 188.201C197.957 188.923 197.197 189.378 196.323 189.492C195.488 189.606 194.576 189.416 193.854 188.923L186.294 183.908C185.535 183.414 185.003 182.693 184.813 181.857C184.585 180.983 184.737 180.147 185.193 179.426L190.055 172.094C186.332 172.474 183.065 174.449 180.976 177.602C178.925 180.717 178.355 184.516 179.457 188.087L179.836 189.34L179.685 189.302C179.912 190.746 179.988 193.139 178.811 194.925L163.995 217.452L163.653 217.832ZM158.487 241.232L151.839 236.826L152.333 228.886L159.437 225.353L166.047 229.722L165.553 237.661L158.487 241.232ZM153.359 236.104L158.563 239.561L164.147 236.788L164.527 230.558L159.323 227.101L153.739 229.874L153.359 236.104ZM166.882 223.948C166.389 223.948 165.895 223.796 165.477 223.53C164.337 222.77 163.957 221.251 164.679 220.035L164.793 219.883L180.672 195.874C180.672 195.874 180.672 195.874 180.672 195.836L180.938 195.419L180.976 195.457C181.318 195.077 181.774 194.849 182.306 194.735C182.989 194.583 183.673 194.735 184.243 195.115C185.421 195.912 185.763 197.508 184.965 198.724C184.889 198.838 184.813 198.951 184.699 199.065L169.276 222.39C169.2 222.504 169.124 222.656 169.01 222.808C168.592 223.53 167.756 223.948 166.882 223.948ZM165.895 220.795C165.629 221.327 165.781 221.934 166.275 222.276C166.807 222.618 167.49 222.466 167.832 221.972C167.87 221.896 167.984 221.744 167.984 221.706L168.06 221.592L183.559 198.116L183.597 198.078C183.635 198.04 183.711 197.964 183.749 197.926C184.091 197.394 183.939 196.71 183.445 196.368C183.179 196.216 182.876 196.14 182.61 196.216C182.306 196.292 182.04 196.444 181.888 196.71C181.85 196.748 181.85 196.786 181.812 196.824L181.432 197.546L181.356 197.508L165.895 220.795Z" fill="#010101"/>
<path d="M180.027 219.351C180.027 219.351 174.328 224.897 166.731 219.579C166.731 219.579 161.944 215.97 163.084 210.614L166.655 202.902" fill="white"/>
<path d="M173.378 222.58C171.327 222.58 168.934 221.972 166.312 220.149C166.085 219.959 161.146 216.198 162.362 210.424V210.348L165.971 202.56L167.3 203.168L163.767 210.804C162.818 215.628 167.11 218.933 167.148 218.971C174.138 223.872 179.266 219.009 179.494 218.819L180.52 219.883C180.52 219.921 177.671 222.58 173.378 222.58Z" fill="#010101"/>
<path d="M178.963 207.499C178.165 207.727 177.367 207.727 176.57 207.537H176.532C176.038 207.347 175.544 207.195 175.05 207.005C175.012 207.005 175.012 207.005 174.974 206.967C174.936 206.967 174.898 206.929 174.86 206.929C174.442 206.663 173.834 206.321 173.417 205.941C172.619 205.219 172.049 204.384 171.707 203.396C171.707 203.32 171.669 203.206 171.669 203.13L167.528 200.737C167.338 201.269 166.579 202.484 166.541 203.016L163.578 209.284C163.388 209.626 163.236 209.93 163.122 210.272C162.438 212.095 162.59 214.109 163.502 216.008C163.616 216.236 163.73 216.464 163.881 216.692C165.097 218.705 167.073 220.301 169.504 221.212C173.417 222.656 177.671 221.896 180.064 219.313L184.053 210.196L179.229 207.423C179.153 207.461 179.077 207.499 178.963 207.499Z" fill="white"/>
<path d="M183.749 209.854L179.798 218.857C177.595 221.136 173.72 221.782 170.111 220.453C167.87 219.617 166.009 218.135 164.869 216.274C164.717 216.046 164.603 215.856 164.527 215.628C163.691 213.919 163.577 212.133 164.185 210.462C164.299 210.158 164.451 209.854 164.603 209.588L168.516 200.357C168.136 200.053 167.756 199.711 167.338 199.369L163.274 208.866C163.084 209.208 162.894 209.588 162.78 209.968C162.058 211.981 162.21 214.185 163.198 216.274C163.312 216.54 163.464 216.768 163.615 217.034C164.907 219.199 167.034 220.908 169.618 221.858C171.251 222.466 172.961 222.694 174.556 222.618C177.063 222.466 179.381 221.478 180.938 219.807L181.014 219.731L185.079 210.5L183.749 209.854Z" fill="#010101"/>
<path d="M177.899 213.767C176.456 213.767 174.936 213.501 173.417 212.931C170.833 211.981 168.744 210.272 167.415 208.107C167.263 207.841 167.111 207.613 166.997 207.347C166.009 205.295 165.857 203.054 166.579 201.041L167.946 201.535C167.339 203.168 167.453 204.954 168.288 206.701C168.402 206.929 168.516 207.119 168.63 207.347C169.77 209.208 171.631 210.69 173.873 211.526C177.709 212.931 181.546 212.285 183.635 209.854L184.737 210.804C183.18 212.779 180.672 213.767 177.899 213.767Z" fill="#010101"/>
<path d="M184.661 211.069L177.861 206.891L184.661 211.069Z" fill="white"/>
<path d="M178.268 206.257L177.491 207.518L184.284 211.702L185.061 210.44L178.268 206.257Z" fill="#010101"/>
<path d="M178.013 208.448C177.063 208.448 176.076 208.22 175.126 207.803C173.872 207.233 172.809 206.397 172.163 205.409C171.441 204.346 171.289 203.206 171.707 202.256L173.037 202.864C172.733 203.51 173.113 204.232 173.378 204.612C173.872 205.371 174.708 206.017 175.696 206.473C176.797 206.967 177.975 207.119 178.925 206.891L179.267 208.296C178.887 208.372 178.469 208.448 178.013 208.448Z" fill="#010101"/>
<path d="M26.6295 210.69L65.6054 214.679L71.6455 128.369L32.2138 126.318C31.2261 126.318 31.3021 127.154 31.3021 127.154L25.2239 209.132C25.2239 209.132 24.882 210.348 26.6295 210.69Z" fill="white"/>
<path d="M66.2893 215.514L26.4776 211.412C25.6419 211.222 25.0341 210.88 24.7302 210.31C24.4263 209.778 24.4643 209.246 24.5023 209.018L30.5424 127.154C30.5424 126.964 30.5804 126.47 30.9602 126.09C31.1502 125.862 31.5681 125.596 32.1759 125.596L72.4054 127.686L66.2893 215.514ZM26.7436 209.968L64.9217 213.881L70.8858 129.053L32.1759 127.04C32.0619 127.04 32.0239 127.078 32.0239 127.078C32.0239 127.078 32.0239 127.116 32.0239 127.154V127.192V127.23L25.9838 209.284L25.9458 209.36C25.9458 209.36 25.9078 209.474 25.9838 209.588C26.0978 209.778 26.3637 209.892 26.7436 209.968Z" fill="#010101"/>
<path d="M94.4764 280.778H112.141V264.975H94.4764V280.778Z" fill="white"/>
<path d="M112.863 281.5H93.7551V264.215H112.863V281.5ZM95.1987 280.056H111.382V265.697H95.1987V280.056Z" fill="#010101"/>
<path d="M122.322 213.121H105.075V266.115H122.322V213.121Z" fill="white"/>
<path d="M123.081 266.836H104.353V212.399H123.081V266.836ZM105.797 265.355H121.6V213.843H105.797V265.355Z" fill="#010101"/>
<path d="M141.278 264.975H112.141V280.778H141.278V264.975Z" fill="white"/>
<path d="M141.999 281.5H111.419V264.215H141.999V281.5ZM112.862 280.056H140.518V265.697H112.862V280.056Z" fill="#010101"/>
<path d="M94.4762 280.778H112.141V264.975H94.4762V280.778Z" fill="white"/>
<path d="M112.863 281.5H93.755V264.215H112.863V281.5ZM95.1986 280.056H111.382V265.697H95.1986V280.056Z" fill="#010101"/>
<path d="M122.892 247.386H105.645V248.868H122.892V247.386Z" fill="#010101"/>
<path d="M122.892 228.886H105.645V230.368H122.892V228.886Z" fill="#010101"/>
<path d="M82.6619 265.659L65.3773 266.115V213.121H82.6619V265.659Z" fill="white"/>
<path d="M64.656 266.836V212.399H83.3842V266.343L64.656 266.836ZM66.0996 213.881V265.355L81.9026 264.937V213.881H66.0996Z" fill="#010101"/>
<path d="M82.6241 247.386H65.3774V248.868H82.6241V247.386Z" fill="#010101"/>
<path d="M82.6241 228.886H65.3774V230.368H82.6241V228.886Z" fill="#010101"/>
<path d="M104.467 264.975H75.3303V280.778H104.467V264.975Z" fill="white"/>
<path d="M105.189 281.5H74.609V264.215H105.189V281.5ZM76.0906 280.056H103.746V265.697H76.0906V280.056Z" fill="#010101"/>
<path d="M56.6024 280.778H75.3306V264.975L56.6024 266.305V280.778Z" fill="white"/>
<path d="M76.09 281.5H55.8802V265.621L76.09 264.177V281.5ZM57.3238 280.056H74.6084V265.773L57.3238 267.026V280.056Z" fill="#010101"/>
<path d="M183.938 260.796C184.622 261.632 200.083 280.474 241.452 267.558C245.403 266.343 249.544 267.976 251.671 271.281C252.051 271.889 252.355 272.535 252.621 273.256C254.178 278.005 251.329 283.171 246.543 284.653C203.616 297.987 181.317 282.791 173.187 275.232C169.047 271.357 168.895 264.823 172.959 260.872C173.073 260.758 173.225 260.644 173.339 260.492C173.301 260.568 178.81 256.352 183.938 260.796Z" fill="white"/>
<path d="M214.633 290.693C208.289 290.693 202.249 289.971 196.588 288.528C184.812 285.489 177.062 279.942 172.618 275.802C170.453 273.788 169.199 270.977 169.199 268.052C169.161 265.127 170.301 262.43 172.39 260.378C172.504 260.265 172.656 260.113 172.808 259.999L172.846 259.961C174.935 258.403 179.988 256.428 184.394 260.227L184.47 260.302C184.888 260.834 188.877 265.545 197.652 268.622C209.314 272.725 224.358 272.079 241.187 266.836C245.365 265.545 249.886 267.178 252.241 270.863C252.659 271.547 253.001 272.269 253.267 272.991C254.065 275.422 253.837 278.005 252.659 280.322C251.443 282.716 249.278 284.539 246.733 285.337C235.298 288.946 224.586 290.693 214.633 290.693ZM173.758 261.1C173.644 261.214 173.53 261.328 173.416 261.442C171.63 263.19 170.642 265.545 170.68 268.014C170.718 270.559 171.744 272.953 173.644 274.7C177.974 278.727 185.496 284.121 196.968 287.084C211.214 290.731 227.815 289.705 246.315 283.969C248.48 283.285 250.342 281.728 251.405 279.714C252.431 277.739 252.621 275.536 251.937 273.484C251.709 272.839 251.443 272.231 251.063 271.661C249.088 268.546 245.213 267.14 241.68 268.242C224.282 273.674 209.352 274.282 197.196 270.027C188.421 266.95 184.28 262.354 183.406 261.29C178.924 257.491 174.175 260.796 173.758 261.1Z" fill="#010101"/>
<path d="M188.459 285.033C188.459 285.033 184.964 277.359 192.562 267.634L188.459 285.033Z" fill="white"/>
<path d="M187.813 285.337C187.661 284.995 184.242 277.169 191.992 267.216L193.131 268.128C185.914 277.397 189.105 284.691 189.105 284.767L187.813 285.337Z" fill="#010101"/>
<path d="M207.947 289.401C207.947 289.401 203.806 279.221 208.821 272.003L207.947 289.401Z" fill="white"/>
<path d="M207.263 289.667C207.225 289.553 206.2 287.008 205.782 283.475C205.212 278.803 206.086 274.662 208.251 271.547L209.467 272.383C204.718 279.221 208.631 289.022 208.669 289.098L207.263 289.667Z" fill="#010101"/>
<path d="M228.955 288.794C228.955 288.794 223.371 279.942 226.941 271.547L228.955 288.794Z" fill="white"/>
<path d="M228.347 289.173C228.119 288.794 222.61 279.904 226.257 271.243L227.587 271.813C224.244 279.752 229.486 288.3 229.562 288.376L228.347 289.173Z" fill="#010101"/>
<path d="M264.131 271.661C264.131 271.661 266.144 279.79 257.217 283.893C257.217 283.893 251.367 286.324 247.074 282.412L241.984 275.042C241.984 275.042 234.69 269.002 243.01 260.872C243.01 260.872 249.164 255.326 255.736 259.885L257.293 263.38" fill="white"/>
<path d="M253.077 285.375C251.064 285.375 248.67 284.843 246.619 282.943L246.543 282.905L241.452 275.536C240.959 275.08 238.489 272.725 238.337 269.04C238.224 266.115 239.629 263.152 242.554 260.341C242.63 260.265 249.24 254.452 256.23 259.277L256.382 259.391L258.015 263.038L256.686 263.645L255.204 260.341C249.24 256.352 243.58 261.328 243.542 261.404C240.959 263.911 239.705 266.457 239.819 268.964C239.933 272.307 242.478 274.472 242.516 274.472L242.592 274.548L242.668 274.624L247.721 281.918C251.595 285.375 256.952 283.209 257.028 283.209C260.485 281.614 262.65 279.221 263.41 276.068C263.979 273.712 263.524 271.851 263.524 271.813L264.929 271.471C264.967 271.547 266.981 280.246 257.635 284.539C257.37 284.615 255.508 285.375 253.077 285.375Z" fill="#010101"/>
<path d="M257.255 263.456L256.002 259.657C252.811 257.112 247.492 257.302 243.58 260.531C239.173 264.139 237.995 270.028 240.958 273.636C241.338 274.092 241.756 274.472 242.212 274.852L246.353 280.892C246.543 281.234 246.771 281.576 246.999 281.842C248.29 283.437 250.19 284.387 252.431 284.539C252.697 284.577 253.001 284.577 253.267 284.577C255.736 284.539 258.281 283.589 260.37 281.88C263.789 279.069 265.347 274.814 264.283 271.243L258.129 262.734" fill="white"/>
<path d="M253.191 285.299C252.887 285.299 252.621 285.299 252.355 285.261C249.962 285.071 247.834 284.007 246.429 282.298C246.163 281.956 245.935 281.614 245.707 281.272L241.68 275.346C241.186 274.966 240.769 274.548 240.389 274.092C237.16 270.142 238.375 263.798 243.086 259.961C247.151 256.656 252.887 256.276 256.458 259.087L256.648 259.239L257.863 262.962L258.737 262.316L264.967 270.939L265.005 271.053C266.145 274.89 264.473 279.487 260.826 282.45C258.585 284.273 255.926 285.299 253.267 285.337C253.229 285.299 253.191 285.299 253.191 285.299ZM250.684 258.631C248.404 258.631 246.011 259.467 244.036 261.062C239.933 264.405 238.831 269.838 241.528 273.143C241.87 273.56 242.25 273.902 242.668 274.244L242.782 274.32L246.999 280.512C247.189 280.816 247.379 281.12 247.606 281.386C248.784 282.83 250.494 283.665 252.507 283.817C252.773 283.855 253.001 283.855 253.267 283.855C255.584 283.817 257.939 282.944 259.915 281.31C263.068 278.727 264.549 274.852 263.637 271.585L257.673 263.342L256.572 263.722L255.394 260.113C254.026 259.125 252.393 258.631 250.684 258.631Z" fill="#010101"/>
<path d="M258.243 263.038C259.459 266.533 257.901 270.711 254.292 273.674C252.203 275.384 249.658 276.371 247.189 276.371C246.923 276.371 246.619 276.371 246.353 276.333C244.15 276.144 242.25 275.232 240.921 273.636L258.243 263.038ZM255.812 259.201L251.329 263.455L255.812 259.201Z" fill="white"/>
<path d="M247.112 277.093C246.847 277.093 246.543 277.093 246.277 277.055C243.883 276.865 241.756 275.802 240.351 274.092L241.49 273.181C242.668 274.624 244.377 275.46 246.391 275.612C246.657 275.612 246.885 275.65 247.15 275.65C249.468 275.612 251.823 274.738 253.798 273.105C257.179 270.369 258.623 266.495 257.521 263.266L258.889 262.772C260.18 266.571 258.547 271.053 254.71 274.206C252.469 276.03 249.81 277.055 247.15 277.093C247.188 277.093 247.15 277.093 247.112 277.093ZM251.823 263.987L250.835 262.924L255.318 258.669L256.306 259.733L251.823 263.987Z" fill="#010101"/>
<path d="M259.117 263.076L252.659 265.925L259.117 263.076Z" fill="white"/>
<path d="M258.805 262.428L252.345 265.289L252.945 266.644L259.405 263.783L258.805 262.428Z" fill="#010101"/>
<path d="M252.241 263.76C251.215 262.81 248.632 263 246.923 264.253C244.72 265.811 243.77 268.242 244.795 269.648C245.821 271.053 248.404 270.901 250.57 269.344C251.785 268.47 252.621 267.33 252.963 266.229C252.963 266.229 252.811 265.393 252.697 265.013" fill="white"/>
<path d="M246.961 271.319C245.746 271.319 244.758 270.863 244.15 270.027C243.504 269.154 243.428 267.976 243.922 266.685C244.378 265.545 245.252 264.443 246.429 263.607C248.443 262.164 251.368 261.974 252.697 263.152L251.71 264.253C250.988 263.607 248.785 263.721 247.303 264.823C246.353 265.507 245.632 266.381 245.29 267.254C245.1 267.71 244.872 268.546 245.328 269.192C245.783 269.838 246.657 269.876 247.151 269.838C248.101 269.8 249.164 269.382 250.076 268.698C251.064 267.976 251.824 267.064 252.128 266.115C252.09 265.811 251.976 265.393 251.9 265.165L253.267 264.671C253.419 265.127 253.571 265.925 253.571 266.039L253.609 266.191L253.571 266.343C253.191 267.634 252.204 268.888 250.912 269.838C249.734 270.673 248.405 271.167 247.189 271.243C247.151 271.319 247.075 271.319 246.961 271.319Z" fill="#010101"/>
<path d="M159.854 265.621C159.17 265.621 158.449 265.507 157.651 265.203L158.145 263.835C162.361 265.393 164.641 260.796 164.755 260.606L164.831 260.492L164.945 260.416C166.312 259.125 167.794 258.479 169.351 258.517C171.782 258.593 173.416 260.378 173.492 260.454L172.428 261.442C172.428 261.442 171.099 260.036 169.313 259.998C168.212 259.96 167.11 260.454 166.084 261.404C165.135 263.076 162.969 265.621 159.854 265.621Z" fill="#010101"/>
<path d="M72.7478 128.445L150.358 134.751C150.358 134.751 151.573 134.713 151.573 136.233L145.533 216.388C145.191 217.984 143.938 217.908 143.938 217.908L67.0115 214.869C64.9602 214.869 65.0741 213.121 65.0741 213.121L71.1902 129.547C71.1902 129.547 71.1902 128.331 72.7478 128.445Z" fill="white"/>
<path d="M143.975 218.667C143.937 218.667 143.937 218.667 143.899 218.667L66.9729 215.628C66.1372 215.628 65.4534 215.362 64.9595 214.869C64.2757 214.147 64.3137 213.197 64.3137 213.083L70.4298 129.509C70.4298 129.319 70.5058 128.711 70.9997 128.217C71.4175 127.838 72.0253 127.648 72.7851 127.724L150.395 134.03C150.585 134.03 151.193 134.068 151.687 134.561C151.99 134.827 152.294 135.359 152.294 136.233V136.271L146.254 216.464V216.502C145.874 218.249 144.621 218.667 143.975 218.667ZM65.7953 213.159C65.7953 213.159 65.7953 213.577 66.0612 213.843C66.2511 214.033 66.593 214.147 67.0109 214.147L143.975 217.186C144.127 217.186 144.621 217.11 144.811 216.274L150.851 136.195C150.851 136.005 150.813 135.739 150.661 135.587C150.547 135.473 150.395 135.473 150.395 135.473H150.357H150.319L72.7091 129.167C72.4052 129.129 72.1773 129.167 72.0633 129.281C71.9494 129.395 71.9494 129.547 71.9494 129.547L65.7953 213.159Z" fill="#010101"/>
<path d="M106.899 131.218L84.6382 129.623L85.0181 125.33L107.317 123.811L106.899 131.218Z" fill="white"/>
<path d="M107.582 132.016L83.8397 130.307L84.3716 124.646L108.114 123.013L107.582 132.016ZM85.4352 128.939L106.215 130.459L106.557 124.609L85.7391 126.052L85.4352 128.939Z" fill="#010101"/>
<path d="M33.5814 118.796L71.6835 123.431L79.813 53.7605L41.1031 54.2164C39.5076 54.2164 39.2796 55.9638 39.2796 55.9638L32.2138 116.821C32.2518 116.821 31.9479 118.53 33.5814 118.796Z" fill="white"/>
<path d="M72.3295 124.229L33.4675 119.48C32.6318 119.366 32.1759 118.948 31.91 118.606C31.3402 117.847 31.4542 116.897 31.4922 116.707L38.558 55.8879C38.6719 55.0522 39.3177 53.4946 41.1032 53.4946L80.6109 53.0008L72.3295 124.229ZM33.6575 118.075L71.0379 122.633L79.0154 54.5203L41.1412 54.9762C40.2294 54.9762 40.0775 55.8879 40.0395 56.0778L32.9737 116.973C32.9357 117.125 32.9357 117.543 33.1256 117.771C33.1636 117.847 33.2776 117.999 33.6575 118.075Z" fill="#010101"/>
<path d="M118.599 206.473L65.6433 203.89L70.9996 139.5L124.031 143.033C125.399 143.147 126.424 144.552 126.31 146.224L121.334 203.662C121.182 205.295 119.966 206.549 118.599 206.473Z" fill="white"/>
<path d="M118.751 207.195C118.675 207.195 118.637 207.195 118.561 207.195L64.8458 204.574L70.3161 138.702L124.069 142.273C125.855 142.387 127.146 144.173 127.032 146.262L122.056 203.7C121.98 204.65 121.6 205.561 120.992 206.207C120.347 206.853 119.549 207.195 118.751 207.195ZM66.4413 203.168L118.675 205.713C119.131 205.751 119.549 205.561 119.891 205.182C120.271 204.764 120.537 204.194 120.574 203.548L125.551 146.11C125.627 144.856 124.943 143.793 123.955 143.717L71.6457 140.26L66.4413 203.168Z" fill="#010101"/>
<path d="M117.46 153.442C117.422 153.442 117.384 153.442 117.308 153.442L78.1038 150.479C77.0782 150.403 76.3564 149.529 76.4324 148.503C76.5083 147.478 77.3821 146.756 78.4077 146.832L117.612 149.795C118.637 149.871 119.359 150.744 119.283 151.77C119.207 152.72 118.409 153.442 117.46 153.442Z" fill="#010101"/>
<path d="M53.3415 157.375L53.3284 157.489L54.8 157.659L54.8131 157.546L53.3415 157.375Z" fill="#010101"/>
<path d="M61.085 0.994986C61.085 0.994986 66.9351 15.6584 68.7586 17.7858L74.1149 17.6338C74.3808 17.5578 74.5328 17.9377 74.3049 18.0897L69.3664 19.3433C69.3664 19.3433 73.2032 26.3331 74.5328 27.2068L79.2053 26.4851C79.3193 26.4471 79.3953 26.637 79.3193 26.713L76.2043 29.4481L80.7628 35.0704L88.1705 35.6402C88.6644 35.6782 88.8923 36.286 88.5124 36.6279L83.9159 39.2491L90.032 47.3406L94.0207 47.5685C94.4006 47.6065 94.4766 48.1383 94.0967 48.2523L91.3236 49.126C91.3236 49.126 97.9335 58.775 105.607 57.2175L108.494 56.7996C108.494 56.7996 112.901 53.0388 110.508 43.0099L106.671 42.9719C106.671 42.9719 110.698 37.7296 105.189 29.0683L101.125 30.9677C101.125 30.9677 107.279 26.789 96.7939 16.8741C96.5659 16.6461 96.224 16.6841 95.9961 16.912L93.8688 19.4193C93.8688 19.4193 98.1614 11.4038 81.8265 3.57818C81.3327 3.35025 80.7249 3.61617 80.6109 4.14801L79.8511 7.26304C79.8511 7.26304 79.7372 3.1983 78.2556 2.28658C76.8121 1.41286 71.7976 0.159246 61.085 0.994986Z" fill="white"/>
<path d="M68.0367 0.729004C74.0768 0.766992 77.1919 1.64072 78.3315 2.32451C79.813 3.23622 79.927 7.30096 79.927 7.30096L80.6868 4.18593C80.8007 3.76806 81.1426 3.54013 81.5225 3.54013C81.6365 3.54013 81.7504 3.57812 81.9024 3.61611C98.2373 11.4797 93.9446 19.4572 93.9446 19.4572L96.072 16.95C96.1859 16.836 96.3379 16.76 96.4899 16.76C96.6418 16.76 96.7558 16.798 96.8697 16.912C107.354 26.8269 101.2 31.0056 101.2 31.0056L105.265 29.1062C110.773 37.7675 106.747 43.0099 106.747 43.0099L110.28 41.6043C114.192 53.1527 105.645 57.2934 105.645 57.2934C105.037 57.4074 104.467 57.4834 103.898 57.4834C97.1357 57.4454 91.3614 49.2019 91.3614 49.2019L94.1346 48.3282C94.5145 48.2142 94.4385 47.6824 94.0586 47.6444L90.0699 47.4165L83.9538 39.325L88.5503 36.7038C88.9302 36.3619 88.7023 35.7541 88.2084 35.7161L82.0164 36.9697L76.1662 29.4481L79.2812 26.7129C79.3572 26.6369 79.3192 26.485 79.2052 26.485C79.2052 26.485 79.2052 26.485 79.1672 26.485L74.4947 27.2068C73.1651 26.371 69.3283 19.3432 69.3283 19.3432L74.2668 18.0896C74.4947 17.9377 74.3807 17.6337 74.1528 17.6337C74.1148 17.6337 74.1148 17.6337 74.0768 17.6337L68.7205 17.7857C66.8971 15.6964 61.0469 0.994921 61.0469 0.994921C63.744 0.80498 66.0233 0.729004 68.0367 0.729004Z" fill="white"/>
<path d="M103.897 58.0912H103.859C96.7935 58.0532 90.9813 49.8478 90.7154 49.5059C90.5635 49.3159 90.5635 49.088 90.6395 48.8601C90.7154 48.6322 90.9054 48.4802 91.0953 48.4042L91.8551 48.1763L89.9937 48.0623C89.7657 48.0623 89.5758 47.9484 89.4618 47.7584L83.3457 39.6669C83.2318 39.515 83.1558 39.2871 83.1938 39.0971C83.2318 38.9072 83.3457 38.7172 83.5357 38.6033L87.0306 36.5899L82.0921 37.6156C81.8262 37.6536 81.5223 37.5776 81.3703 37.3497L75.5961 29.866C75.3682 29.5621 75.4062 29.1062 75.7101 28.8783L77.2676 27.5107L74.6084 27.9286C74.4185 27.9666 74.2665 27.9286 74.1146 27.8146C72.671 26.9029 69.3281 20.9008 68.6823 19.6852C68.5683 19.4952 68.5683 19.2673 68.6443 19.0394C68.7203 18.8494 68.9102 18.6595 69.1381 18.6215L69.708 18.4695L68.7583 18.5075C68.5303 18.5075 68.3404 18.4315 68.1884 18.2416C66.327 16.1143 61.0087 2.78042 60.4009 1.26089C60.3249 1.03296 60.3249 0.80503 60.4768 0.61509C60.5908 0.425149 60.8187 0.273196 61.0467 0.273196C63.5539 0.0832551 65.9091 -0.0307096 68.0365 0.0072786C75.4062 0.0452668 78.0654 1.29888 78.6732 1.67876C79.319 2.05864 79.7368 2.8184 80.0408 3.65414C80.3067 3.12231 80.8385 2.74243 81.4843 2.74243C81.7122 2.74243 81.9402 2.78042 82.1681 2.89438C89.1199 6.23734 93.3366 10.0362 94.6662 14.2149C94.9701 15.2026 95.0841 16.0763 95.1221 16.836L95.426 16.4562C95.6539 16.1902 96.0338 16.0003 96.3757 16.0003C96.7176 16.0003 97.0215 16.1143 97.2494 16.3422C101.694 20.5589 103.821 24.3577 103.555 27.5867C103.517 28.1565 103.403 28.6884 103.214 29.1442L104.809 28.3845C105.151 28.2325 105.531 28.3465 105.721 28.6504C109.596 34.7285 108.988 39.2111 108.114 41.5284L109.861 40.8446C110.051 40.7686 110.241 40.7686 110.431 40.8446C110.621 40.9206 110.735 41.0725 110.811 41.2624C112.939 47.5305 111.495 51.6712 109.899 54.0645C108.152 56.6856 105.911 57.7873 105.835 57.8253C105.797 57.8633 105.721 57.8633 105.683 57.9013C105.113 58.0532 104.505 58.0912 103.897 58.0912ZM92.5389 49.4679C94.1724 51.4813 98.7689 56.6097 103.859 56.6097C104.353 56.6097 104.847 56.5717 105.341 56.4577C106.177 56.0019 112.711 52.241 109.748 42.4401L106.936 43.5797C106.632 43.6937 106.291 43.6177 106.101 43.3518C105.911 43.0859 105.911 42.744 106.101 42.4781C106.253 42.2881 109.558 37.7295 104.923 29.98L101.428 31.6134C101.086 31.7654 100.668 31.6514 100.478 31.3095C100.288 30.9676 100.402 30.5498 100.706 30.3598C100.744 30.3218 102.036 29.4101 102.15 27.4347C102.302 25.5353 101.39 22.3063 96.4137 17.5578L94.4383 19.9131C94.2103 20.217 93.7925 20.255 93.4506 20.065C93.1467 19.8371 93.0327 19.4572 93.2226 19.1153C93.2606 19.0394 94.1344 17.2919 93.2606 14.6327C92.3869 12.0495 89.6518 8.17474 81.5223 4.26196H81.4843C81.4463 4.26196 81.3703 4.29994 81.3324 4.33793L80.5726 7.45296C80.4966 7.79486 80.1547 8.06077 79.7748 8.02279C79.395 7.9848 79.129 7.68089 79.129 7.30101C79.091 5.78148 78.6732 3.42622 77.8754 2.93237C77.4955 2.70444 75.1403 1.48882 67.9605 1.45083C66.1751 1.45083 64.1997 1.52681 62.1103 1.64077C63.8578 6.00941 67.5806 14.8607 69.0622 17.026L74.0006 16.874C74.0386 16.874 74.0766 16.874 74.1146 16.874C74.5705 16.874 74.9503 17.1779 75.0643 17.5958C75.1783 18.0137 74.9883 18.4695 74.6084 18.6975C74.5325 18.7355 74.4945 18.7734 74.4185 18.7734L70.3918 19.7991C71.8353 22.3443 73.8107 25.5733 74.6844 26.4091L79.0531 25.7253C79.091 25.7253 79.167 25.7253 79.205 25.7253C79.5849 25.7253 79.8888 25.9532 80.0028 26.2951C80.1167 26.637 80.0408 27.0169 79.7748 27.2448L77.1537 29.5241L82.2441 36.0961L87.9803 34.9184C88.0563 34.9184 88.0942 34.9184 88.1702 34.9184C88.7021 34.9564 89.1579 35.2983 89.3099 35.7921C89.4998 36.286 89.3479 36.8178 88.968 37.1977C88.93 37.2357 88.892 37.2737 88.854 37.2737L84.9792 39.477L90.4115 46.6188L94.0584 46.8087C94.5902 46.8467 95.0081 47.2266 95.0841 47.7584C95.16 48.2903 94.8561 48.7461 94.3623 48.9361L92.5389 49.4679Z" fill="#010101"/>
<path d="M107.887 69.1458C107.507 69.1458 107.203 68.8799 107.165 68.5C104.81 48.7461 95.1986 33.2469 87.563 23.7499C79.0916 13.2272 71.1521 7.52894 71.0761 7.45297C70.7342 7.22504 70.6582 6.76918 70.8861 6.42728C71.1141 6.08539 71.5699 6.00941 71.8738 6.23734C71.9498 6.27533 79.9273 11.9736 88.5507 22.6482C96.3762 32.3352 106.177 48.1003 108.608 68.272C108.646 68.6899 108.38 69.0318 107.963 69.0698C107.963 69.1458 107.925 69.1458 107.887 69.1458Z" fill="#010101"/>
<path d="M72.5568 123.545L150.053 132.586C150.053 132.586 151.648 132.966 151.876 131.142L159.36 67.8921C159.588 66.1067 157.688 65.9927 157.688 65.9927L80.6862 53.7225C79.8505 53.6085 79.7365 54.5582 79.7365 54.5582L71.797 122.443C71.797 122.443 71.4171 123.393 72.5568 123.545Z" fill="white"/>
<path d="M150.395 133.346C150.205 133.346 150.015 133.308 149.939 133.308L72.443 124.267C71.6832 124.191 71.3414 123.811 71.1514 123.507C70.8855 123.013 70.9615 122.519 71.0375 122.291L79.015 54.4823C79.053 54.3304 79.1669 53.6846 79.6988 53.2667C80.0027 53.0388 80.4205 52.9248 80.8384 53.0008L157.802 65.233C158.03 65.271 159.018 65.3849 159.626 66.1447C159.892 66.4866 160.196 67.0564 160.12 67.9681L152.636 131.218C152.522 132.206 152.066 132.7 151.686 132.966C151.231 133.308 150.775 133.346 150.395 133.346ZM150.243 131.902C150.243 131.902 150.623 131.978 150.851 131.788C151.003 131.674 151.117 131.408 151.155 131.067L158.6 67.8162C158.638 67.5123 158.6 67.2844 158.448 67.0944C158.182 66.7525 157.613 66.7145 157.613 66.7145H157.537L80.5345 54.4443C80.4965 54.4443 80.4965 54.4443 80.4965 54.4443C80.4965 54.4443 80.4205 54.5583 80.4205 54.6723L72.481 122.633L72.443 122.709C72.443 122.709 72.443 122.709 72.443 122.747C72.481 122.747 72.519 122.785 72.633 122.785L150.167 131.864L150.243 131.902Z" fill="#010101"/>
<path d="M48.3205 152.834C53.2299 152.834 57.2097 148.854 57.2097 143.945C57.2097 139.035 53.2299 135.055 48.3205 135.055C43.4111 135.055 39.4313 139.035 39.4313 143.945C39.4313 148.854 43.4111 152.834 48.3205 152.834Z" fill="#D8D8D8"/>
<path d="M48.321 153.556C43.0026 153.556 38.71 149.225 38.71 143.945C38.71 138.626 43.0406 134.333 48.321 134.333C53.6393 134.333 57.932 138.664 57.932 143.945C57.932 149.263 53.6393 153.556 48.321 153.556ZM48.321 135.777C43.8384 135.777 40.1535 139.424 40.1535 143.945C40.1535 148.427 43.8004 152.112 48.321 152.112C52.8036 152.112 56.4884 148.465 56.4884 143.945C56.4884 139.462 52.8036 135.777 48.321 135.777Z" fill="#010101"/>
<path d="M36.4306 164.838C36.2407 164.838 36.0887 164.838 36.0887 164.838L36.2407 163.394C36.3167 163.394 38.1021 163.546 39.5077 162.141C40.9132 160.735 41.4831 158.342 41.2172 154.923C40.3434 144.4 48.169 143.223 48.245 143.223L48.4349 144.666L48.3209 143.944L48.4349 144.666C48.169 144.704 41.9009 145.73 42.6607 154.809C42.9646 158.684 42.2428 161.495 40.4954 163.205C38.9758 164.686 37.1904 164.838 36.4306 164.838Z" fill="#010101"/>
<path d="M43.8381 141.779C42.4706 141.779 41.217 141.513 40.0773 140.944C36.5824 139.196 35.4807 135.435 35.4427 135.245L36.8483 134.865L36.1265 135.055L36.8483 134.865C36.8483 134.903 37.836 138.208 40.7611 139.652C42.7365 140.64 45.2057 140.564 48.0928 139.424L48.6246 140.792C46.8772 141.475 45.2817 141.779 43.8381 141.779Z" fill="#010101"/>
<path d="M88.5888 97.409C92.659 97.409 95.9585 94.1094 95.9585 90.0393C95.9585 85.9691 92.659 82.6696 88.5888 82.6696C84.5186 82.6696 81.2191 85.9691 81.2191 90.0393C81.2191 94.1094 84.5186 97.409 88.5888 97.409Z" fill="white"/>
<path d="M88.5884 98.1307C84.1438 98.1307 80.4969 94.4839 80.4969 90.0392C80.4969 85.5946 84.1438 81.9478 88.5884 81.9478C93.0331 81.9478 96.6799 85.5946 96.6799 90.0392C96.6799 94.5218 93.071 98.1307 88.5884 98.1307ZM88.5884 83.4293C84.9416 83.4293 81.9785 86.3924 81.9785 90.0392C81.9785 93.6861 84.9416 96.6492 88.5884 96.6492C92.2353 96.6492 95.1984 93.6861 95.1984 90.0392C95.2364 86.3924 92.2353 83.4293 88.5884 83.4293Z" fill="#010101"/>
<path d="M142.721 105.121C146.792 105.121 150.091 101.821 150.091 97.7509C150.091 93.6808 146.792 90.3812 142.721 90.3812C138.651 90.3812 135.352 93.6808 135.352 97.7509C135.352 101.821 138.651 105.121 142.721 105.121Z" fill="white"/>
<path d="M142.722 105.842C138.277 105.842 134.63 102.196 134.63 97.7509C134.63 93.3063 138.277 89.6594 142.722 89.6594C147.166 89.6594 150.813 93.3063 150.813 97.7509C150.813 102.196 147.204 105.842 142.722 105.842ZM142.722 91.103C139.075 91.103 136.112 94.066 136.112 97.7129C136.112 101.36 139.075 104.323 142.722 104.323C146.369 104.323 149.332 101.36 149.332 97.7129C149.37 94.066 146.407 91.103 142.722 91.103Z" fill="#010101"/>
<path d="M137.935 153.442C140.411 153.442 142.418 151.435 142.418 148.959C142.418 146.483 140.411 144.476 137.935 144.476C135.459 144.476 133.452 146.483 133.452 148.959C133.452 151.435 135.459 153.442 137.935 153.442Z" fill="white"/>
<path d="M137.973 154.163C137.745 154.163 137.517 154.163 137.29 154.125C135.922 153.935 134.668 153.252 133.833 152.15C132.997 151.048 132.617 149.681 132.807 148.313C133.187 145.464 135.808 143.451 138.657 143.831C141.506 144.21 143.52 146.832 143.14 149.681C142.95 151.048 142.266 152.302 141.164 153.138C140.215 153.783 139.113 154.163 137.973 154.163ZM137.935 145.198C136.074 145.198 134.478 146.566 134.212 148.465C134.099 149.453 134.364 150.44 134.972 151.238C135.58 152.036 136.454 152.53 137.441 152.682C138.429 152.796 139.417 152.53 140.215 151.922C141.012 151.314 141.506 150.44 141.658 149.453C141.924 147.401 140.481 145.54 138.429 145.236C138.277 145.198 138.087 145.198 137.935 145.198Z" fill="#010101"/>
<path d="M137.214 166.206C139.689 166.206 141.696 164.199 141.696 161.723C141.696 159.247 139.689 157.24 137.214 157.24C134.738 157.24 132.731 159.247 132.731 161.723C132.731 164.199 134.738 166.206 137.214 166.206Z" fill="white"/>
<path d="M137.213 166.927C136.985 166.927 136.757 166.927 136.529 166.889C133.68 166.509 131.667 163.888 132.047 161.039C132.427 158.19 135.048 156.177 137.897 156.557C139.265 156.746 140.518 157.43 141.354 158.532C142.19 159.634 142.57 161.001 142.38 162.369C142.19 163.736 141.506 164.99 140.404 165.826C139.455 166.585 138.353 166.927 137.213 166.927ZM137.213 158C135.352 158 133.756 159.368 133.49 161.267C133.225 163.318 134.668 165.18 136.719 165.484C137.707 165.598 138.695 165.332 139.493 164.724C140.29 164.116 140.784 163.242 140.936 162.255C141.05 161.267 140.784 160.279 140.176 159.482C139.569 158.684 138.695 158.19 137.707 158.038C137.517 158 137.365 158 137.213 158Z" fill="#010101"/>
<path d="M141.164 176.614L131.249 175.855C130.337 175.779 129.502 176.311 129.464 176.994L127.336 205.258C127.298 205.865 127.944 206.435 128.818 206.473L133.338 206.815L138.733 207.233C139.644 207.309 140.48 206.777 140.518 206.093L142.645 177.83C142.645 177.222 142 176.69 141.164 176.614Z" fill="white"/>
<path d="M138.885 207.955C138.809 207.955 138.733 207.955 138.657 207.955L128.742 207.195C127.488 207.081 126.539 206.245 126.614 205.219L128.742 176.956C128.742 176.538 128.97 176.083 129.35 175.741C129.843 175.285 130.565 175.095 131.287 175.133L141.202 175.893C142.456 176.007 143.405 176.842 143.329 177.868L141.202 206.131C141.202 206.549 140.974 207.005 140.594 207.347C140.176 207.727 139.53 207.955 138.885 207.955ZM131.059 176.538C130.717 176.538 130.451 176.652 130.299 176.766C130.261 176.804 130.185 176.88 130.185 176.956L128.058 205.219C128.058 205.371 128.362 205.637 128.856 205.675L138.771 206.435C139.189 206.473 139.492 206.321 139.644 206.207C139.682 206.169 139.758 206.093 139.758 206.017L141.886 177.754C141.886 177.602 141.582 177.336 141.088 177.298L131.173 176.538C131.135 176.538 131.097 176.538 131.059 176.538Z" fill="#010101"/>
<path d="M128.757 190.555L128.646 192.032L141.943 193.03L142.054 191.553L128.757 190.555Z" fill="#010101"/>
<path d="M129.152 182.866L129.041 184.343L142.338 185.341L142.449 183.864L129.152 182.866Z" fill="#010101"/>
<path d="M128.075 198.149L127.965 199.627L141.261 200.624L141.372 199.147L128.075 198.149Z" fill="#010101"/>
<path d="M135.461 175.9L133.223 206.779L134.701 206.886L136.939 176.007L135.461 175.9Z" fill="#010101"/>
<path d="M201.489 100.258L221.509 78.5669C224.206 75.6418 224.054 71.0452 221.091 68.348C218.166 65.6509 213.57 65.8028 210.872 68.7659L197.083 83.7333L177.063 105.425C174.366 108.35 174.518 112.946 177.481 115.643C180.406 118.34 185.002 118.189 187.7 115.225L201.489 100.258Z" fill="#D8D8D8"/>
<path d="M191.004 94.218L212.696 114.238C215.621 116.935 220.217 116.783 222.915 113.82C225.612 110.895 225.46 106.298 222.497 103.601L207.491 89.7733L185.8 69.7536C182.875 67.0564 178.278 67.2084 175.581 70.1714C172.884 73.0965 173.036 77.6931 175.999 80.3903L191.004 94.218C191.042 94.218 191.004 94.218 191.004 94.218Z" fill="#D8D8D8"/>
<path d="M175.886 136.271C177.082 136.271 178.051 135.302 178.051 134.106C178.051 132.91 177.082 131.94 175.886 131.94C174.69 131.94 173.72 132.91 173.72 134.106C173.72 135.302 174.69 136.271 175.886 136.271Z" fill="#D8D8D8"/>
<path d="M226.828 49.4299C228.401 49.4299 229.677 48.1543 229.677 46.5807C229.677 45.0072 228.401 43.7316 226.828 43.7316C225.254 43.7316 223.978 45.0072 223.978 46.5807C223.978 48.1543 225.254 49.4299 226.828 49.4299Z" fill="#D8D8D8"/>
<path d="M177.405 43.5797C180.195 43.5797 182.457 41.3176 182.457 38.5272C182.457 35.7368 180.195 33.4748 177.405 33.4748C174.614 33.4748 172.352 35.7368 172.352 38.5272C172.352 41.3176 174.614 43.5797 177.405 43.5797Z" fill="#D8D8D8"/>
</svg>
